<mxfile host="app.diagrams.net" agent="Mozilla/5.0 (Windows NT 10.0; Win64; x64; rv:130.0) Gecko/20100101 Firefox/130.0 Herring/91.1.1885.10" version="24.7.13">
  <diagram id="C5RBs43oDa-KdzZeNtuy" name="Page-1">
    <mxGraphModel dx="1050" dy="530" grid="1" gridSize="10" guides="1" tooltips="1" connect="1" arrows="1" fold="1" page="1" pageScale="1" pageWidth="827" pageHeight="1169" math="0" shadow="0">
      <root>
        <mxCell id="WIyWlLk6GJQsqaUBKTNV-0" />
        <mxCell id="WIyWlLk6GJQsqaUBKTNV-1" parent="WIyWlLk6GJQsqaUBKTNV-0" />
        <mxCell id="HU4TRK4CpS0P90ndItaQ-2" value="Pawn Class" style="rounded=0;whiteSpace=wrap;html=1;" parent="WIyWlLk6GJQsqaUBKTNV-1" vertex="1">
          <mxGeometry x="20" y="100" width="120" height="60" as="geometry" />
        </mxCell>
        <mxCell id="HU4TRK4CpS0P90ndItaQ-3" value="HUD Class" style="rounded=0;whiteSpace=wrap;html=1;" parent="WIyWlLk6GJQsqaUBKTNV-1" vertex="1">
          <mxGeometry x="380" y="120" width="120" height="60" as="geometry" />
        </mxCell>
        <mxCell id="HU4TRK4CpS0P90ndItaQ-4" value="Player Controller Class" style="rounded=0;whiteSpace=wrap;html=1;" parent="WIyWlLk6GJQsqaUBKTNV-1" vertex="1">
          <mxGeometry x="680" y="80" width="120" height="60" as="geometry" />
        </mxCell>
        <mxCell id="6r_PHCcJdkS4bBOd85Ro-13" style="edgeStyle=orthogonalEdgeStyle;rounded=0;orthogonalLoop=1;jettySize=auto;html=1;exitX=0.5;exitY=1;exitDx=0;exitDy=0;" parent="WIyWlLk6GJQsqaUBKTNV-1" source="HU4TRK4CpS0P90ndItaQ-5" target="6r_PHCcJdkS4bBOd85Ro-12" edge="1">
          <mxGeometry relative="1" as="geometry" />
        </mxCell>
        <mxCell id="HU4TRK4CpS0P90ndItaQ-5" value="Player State Class" style="rounded=0;whiteSpace=wrap;html=1;" parent="WIyWlLk6GJQsqaUBKTNV-1" vertex="1">
          <mxGeometry x="190" y="90" width="120" height="60" as="geometry" />
        </mxCell>
        <mxCell id="HU4TRK4CpS0P90ndItaQ-6" value="Game State Class" style="rounded=0;whiteSpace=wrap;html=1;" parent="WIyWlLk6GJQsqaUBKTNV-1" vertex="1">
          <mxGeometry x="530" y="90" width="120" height="60" as="geometry" />
        </mxCell>
        <mxCell id="6r_PHCcJdkS4bBOd85Ro-0" value="The Pawn is the base class for all actors controlled by the players or&amp;nbsp; AI. The Pawn interacts with the world in collisions and other ways. Vitally, the Pawn location, rotation for a player or entity in the game. A character is a pawn with a unique movement. The Pawn may be a character, vehicle, or pawn Class. The Pawn class is generic for diverse pawn types, but the character and vehicle are usual pawns in most games." style="whiteSpace=wrap;html=1;aspect=fixed;" parent="WIyWlLk6GJQsqaUBKTNV-1" vertex="1">
          <mxGeometry x="10" y="270" width="210" height="210" as="geometry" />
        </mxCell>
        <mxCell id="6r_PHCcJdkS4bBOd85Ro-1" value="" style="endArrow=classic;html=1;rounded=0;exitX=0.75;exitY=1;exitDx=0;exitDy=0;entryX=0.5;entryY=0;entryDx=0;entryDy=0;" parent="WIyWlLk6GJQsqaUBKTNV-1" source="HU4TRK4CpS0P90ndItaQ-2" target="6r_PHCcJdkS4bBOd85Ro-0" edge="1">
          <mxGeometry width="50" height="50" relative="1" as="geometry">
            <mxPoint x="390" y="310" as="sourcePoint" />
            <mxPoint x="440" y="260" as="targetPoint" />
          </mxGeometry>
        </mxCell>
        <mxCell id="6r_PHCcJdkS4bBOd85Ro-3" value="The HUD class is the inheritance of every human-controlled player with its instance to the player&#39;s Viewport." style="rounded=0;whiteSpace=wrap;html=1;" parent="WIyWlLk6GJQsqaUBKTNV-1" vertex="1">
          <mxGeometry x="400" y="250" width="200" height="70" as="geometry" />
        </mxCell>
        <mxCell id="6r_PHCcJdkS4bBOd85Ro-4" style="edgeStyle=orthogonalEdgeStyle;rounded=0;orthogonalLoop=1;jettySize=auto;html=1;exitX=0.25;exitY=1;exitDx=0;exitDy=0;entryX=0.395;entryY=0.057;entryDx=0;entryDy=0;entryPerimeter=0;" parent="WIyWlLk6GJQsqaUBKTNV-1" source="HU4TRK4CpS0P90ndItaQ-3" target="6r_PHCcJdkS4bBOd85Ro-3" edge="1">
          <mxGeometry relative="1" as="geometry" />
        </mxCell>
        <mxCell id="6r_PHCcJdkS4bBOd85Ro-7" style="edgeStyle=orthogonalEdgeStyle;rounded=0;orthogonalLoop=1;jettySize=auto;html=1;exitX=0;exitY=0.25;exitDx=0;exitDy=0;entryX=0.5;entryY=0;entryDx=0;entryDy=0;" parent="WIyWlLk6GJQsqaUBKTNV-1" source="6r_PHCcJdkS4bBOd85Ro-6" target="HU4TRK4CpS0P90ndItaQ-2" edge="1">
          <mxGeometry relative="1" as="geometry" />
        </mxCell>
        <mxCell id="6r_PHCcJdkS4bBOd85Ro-8" style="edgeStyle=orthogonalEdgeStyle;rounded=0;orthogonalLoop=1;jettySize=auto;html=1;exitX=1;exitY=0.25;exitDx=0;exitDy=0;" parent="WIyWlLk6GJQsqaUBKTNV-1" source="6r_PHCcJdkS4bBOd85Ro-6" target="HU4TRK4CpS0P90ndItaQ-4" edge="1">
          <mxGeometry relative="1" as="geometry" />
        </mxCell>
        <mxCell id="6r_PHCcJdkS4bBOd85Ro-9" style="edgeStyle=orthogonalEdgeStyle;rounded=0;orthogonalLoop=1;jettySize=auto;html=1;exitX=0.75;exitY=1;exitDx=0;exitDy=0;" parent="WIyWlLk6GJQsqaUBKTNV-1" source="6r_PHCcJdkS4bBOd85Ro-6" target="HU4TRK4CpS0P90ndItaQ-3" edge="1">
          <mxGeometry relative="1" as="geometry" />
        </mxCell>
        <mxCell id="6r_PHCcJdkS4bBOd85Ro-14" style="edgeStyle=orthogonalEdgeStyle;rounded=0;orthogonalLoop=1;jettySize=auto;html=1;exitX=0;exitY=0.75;exitDx=0;exitDy=0;entryX=1;entryY=0.5;entryDx=0;entryDy=0;" parent="WIyWlLk6GJQsqaUBKTNV-1" source="6r_PHCcJdkS4bBOd85Ro-6" target="HU4TRK4CpS0P90ndItaQ-5" edge="1">
          <mxGeometry relative="1" as="geometry" />
        </mxCell>
        <mxCell id="6r_PHCcJdkS4bBOd85Ro-17" style="edgeStyle=orthogonalEdgeStyle;rounded=0;orthogonalLoop=1;jettySize=auto;html=1;exitX=1;exitY=0.5;exitDx=0;exitDy=0;" parent="WIyWlLk6GJQsqaUBKTNV-1" source="6r_PHCcJdkS4bBOd85Ro-6" target="HU4TRK4CpS0P90ndItaQ-6" edge="1">
          <mxGeometry relative="1" as="geometry" />
        </mxCell>
        <mxCell id="6r_PHCcJdkS4bBOd85Ro-6" value="Actor class" style="rounded=0;whiteSpace=wrap;html=1;" parent="WIyWlLk6GJQsqaUBKTNV-1" vertex="1">
          <mxGeometry x="350" y="10" width="120" height="60" as="geometry" />
        </mxCell>
        <mxCell id="6r_PHCcJdkS4bBOd85Ro-10" value="An interface is a pawn and a human player controlling it. Inheritance is the Player Controller making decisions and issuing the command to the pawn. Within the inheritance class is the Player Controller or AI. All the human players in the game contain an instance assigned to each individual." style="whiteSpace=wrap;html=1;aspect=fixed;" parent="WIyWlLk6GJQsqaUBKTNV-1" vertex="1">
          <mxGeometry x="690" y="190" width="170" height="170" as="geometry" />
        </mxCell>
        <mxCell id="6r_PHCcJdkS4bBOd85Ro-11" style="edgeStyle=orthogonalEdgeStyle;rounded=0;orthogonalLoop=1;jettySize=auto;html=1;exitX=0.5;exitY=1;exitDx=0;exitDy=0;entryX=0.353;entryY=0.018;entryDx=0;entryDy=0;entryPerimeter=0;" parent="WIyWlLk6GJQsqaUBKTNV-1" source="HU4TRK4CpS0P90ndItaQ-4" target="6r_PHCcJdkS4bBOd85Ro-10" edge="1">
          <mxGeometry relative="1" as="geometry" />
        </mxCell>
        <mxCell id="6r_PHCcJdkS4bBOd85Ro-12" value="Participation in a game would be a human player. Inheritance is in each player&#39;s state class with their name, player&#39;s score, or the human player or bot with the flag in CTF." style="whiteSpace=wrap;html=1;aspect=fixed;" parent="WIyWlLk6GJQsqaUBKTNV-1" vertex="1">
          <mxGeometry x="230" y="240" width="140" height="140" as="geometry" />
        </mxCell>
        <mxCell id="6r_PHCcJdkS4bBOd85Ro-15" value="The Game State class consists of the following list of connected players, the score, the positioning of the chess board pieces, or the list of completed missions." style="whiteSpace=wrap;html=1;aspect=fixed;" parent="WIyWlLk6GJQsqaUBKTNV-1" vertex="1">
          <mxGeometry x="530" y="360" width="130" height="130" as="geometry" />
        </mxCell>
        <mxCell id="6r_PHCcJdkS4bBOd85Ro-16" style="edgeStyle=orthogonalEdgeStyle;rounded=0;orthogonalLoop=1;jettySize=auto;html=1;exitX=0.75;exitY=1;exitDx=0;exitDy=0;entryX=0.8;entryY=-0.006;entryDx=0;entryDy=0;entryPerimeter=0;" parent="WIyWlLk6GJQsqaUBKTNV-1" source="HU4TRK4CpS0P90ndItaQ-6" target="6r_PHCcJdkS4bBOd85Ro-15" edge="1">
          <mxGeometry relative="1" as="geometry" />
        </mxCell>
      </root>
    </mxGraphModel>
  </diagram>
</mxfile>
